<?xml version="1.0" standalone="no"?>
<!DOCTYPE svg PUBLIC "-//W3C//DTD SVG 20010904//EN"
 "http://www.w3.org/TR/2001/REC-SVG-20010904/DTD/svg10.dtd">
<svg version="1.0" xmlns="http://www.w3.org/2000/svg"
 width="187.000000pt" height="187.000000pt" viewBox="0 0 187.000000 187.000000"
 preserveAspectRatio="xMidYMid meet">
<metadata>
Created by potrace 1.14, written by Peter Selinger 2001-2017
</metadata>
<g transform="translate(0.000000,187.000000) scale(0.100000,-0.100000)"
fill="#000000" stroke="none">
<path d="M470 1744 c-11 -12 -11 -15 -1 -12 8 2 15 -5 16 -15 3 -17 2 -17 -14
-3 -10 9 -21 13 -25 9 -4 -5 -6 -3 -4 2 2 6 -1 10 -7 10 -5 0 -9 -6 -7 -15 2
-13 1 -13 -10 0 -7 8 -19 16 -27 18 -12 3 -12 1 0 -14 13 -16 12 -17 -6 -7
-15 9 -22 8 -33 -5 -11 -15 -12 -14 -7 8 4 14 3 20 -2 14 -4 -6 -16 -10 -25
-9 -11 2 -15 -2 -11 -11 4 -12 0 -12 -22 -4 -29 11 -49 5 -39 -12 5 -8 1 -9
-12 -4 -10 4 -15 4 -12 0 4 -3 -3 -15 -15 -25 -22 -18 -22 -18 -2 -33 14 -11
15 -14 4 -10 -10 3 -19 -1 -22 -10 -4 -10 -1 -13 9 -9 7 3 14 0 14 -7 0 -6 5
-8 12 -4 7 4 8 3 4 -4 -4 -6 -12 -10 -19 -8 -7 1 -9 1 -4 -1 4 -3 5 -9 2 -14
-4 -5 2 -6 11 -2 13 5 15 3 8 -8 -12 -20 -14 -40 -3 -33 5 3 7 10 4 15 -10 15
2 10 16 -8 12 -14 12 -16 0 -8 -11 6 -13 4 -8 -8 3 -10 2 -17 -3 -17 -6 0 -10
-5 -10 -11 0 -7 11 -4 28 7 19 13 24 13 15 2 -7 -8 -9 -19 -5 -23 4 -5 0 -5
-8 0 -12 6 -13 5 -2 -6 15 -16 16 -33 0 -23 -7 5 -8 3 -2 -7 5 -8 9 -25 9 -39
0 -17 5 -24 15 -23 10 2 16 -6 18 -23 1 -14 -2 -23 -8 -19 -6 3 -10 1 -10 -4
0 -6 10 -11 23 -12 12 0 16 -3 10 -6 -7 -2 -13 -9 -13 -14 0 -6 4 -8 9 -4 6 3
10 -3 10 -12 1 -39 5 -52 13 -47 4 3 4 14 -2 24 -7 13 -7 21 0 25 6 4 10 3 9
-2 -4 -22 2 -34 14 -27 10 6 10 4 0 -7 -19 -19 -16 -32 7 -26 10 3 19 2 18 -2
-3 -28 4 -51 14 -45 7 5 9 2 5 -8 -4 -12 -1 -14 14 -11 15 4 18 2 13 -13 -4
-11 -4 -16 1 -12 4 4 16 -3 27 -15 11 -12 17 -17 14 -11 -3 7 1 14 9 18 16 6
39 -26 27 -39 -4 -5 0 -6 9 -2 9 3 22 0 29 -6 10 -9 11 -9 5 2 -6 11 -4 13 9
8 10 -4 22 -7 27 -7 5 0 9 -8 10 -17 0 -10 3 -13 5 -6 3 7 12 9 21 6 12 -5 14
-3 8 8 -4 8 -5 11 0 7 4 -4 15 -2 24 5 14 11 14 10 2 -6 -8 -9 -11 -21 -7 -24
4 -4 11 -1 16 7 8 13 14 8 12 -11 -1 -3 6 -6 14 -6 17 0 18 9 2 27 -11 12 -10
12 4 1 9 -7 22 -10 27 -6 6 3 8 0 5 -9 -4 -11 1 -13 23 -10 15 3 36 6 45 8 10
1 21 6 25 11 5 4 3 5 -4 1 -6 -3 -14 -2 -17 3 -4 5 2 8 11 6 11 -1 17 -9 15
-21 -2 -17 -1 -18 11 -2 10 13 17 14 32 5 18 -9 19 -9 6 6 -16 20 -1 23 18 5
11 -10 13 -10 7 0 -4 7 -2 12 6 13 7 1 18 2 23 4 6 1 16 3 23 3 7 1 11 6 8 10
-7 11 31 8 41 -3 5 -4 3 -6 -2 -2 -6 3 -17 1 -25 -4 -12 -7 -11 -8 5 -6 11 1
25 5 30 8 6 4 18 5 28 4 9 -2 14 1 11 7 -4 6 5 8 22 5 18 -3 35 1 43 10 12 13
11 14 -10 8 -19 -6 -22 -5 -13 6 12 16 13 39 2 39 -5 0 -11 0 -14 0 -4 0 -1
-6 5 -14 8 -10 8 -16 -3 -25 -11 -9 -16 -9 -22 0 -4 7 -3 9 4 5 7 -4 10 4 10
22 -1 16 3 35 7 42 6 10 4 12 -9 7 -14 -6 -15 -3 -6 14 8 14 8 24 1 33 -6 7
-8 16 -4 19 3 4 1 7 -5 7 -7 0 -12 5 -12 11 0 5 5 7 11 3 6 -3 1 12 -12 34
-13 22 -28 38 -34 34 -5 -3 -3 3 5 13 9 11 10 16 3 11 -9 -5 -13 0 -13 13 0
12 -5 21 -11 21 -5 0 -7 -6 -3 -12 5 -9 2 -9 -9 1 -9 7 -17 19 -17 25 0 6 5 4
10 -4 8 -13 10 -12 10 3 0 9 -4 17 -10 17 -5 0 -10 12 -10 26 0 22 -4 25 -21
21 -17 -5 -18 -3 -7 11 11 14 10 15 -7 9 -20 -7 -20 -7 -1 8 23 17 5 20 -27 4
-21 -10 -21 -10 1 8 l23 19 -22 1 c-12 1 -29 10 -38 19 -9 9 -10 14 -3 10 6
-4 12 -2 12 3 0 6 -7 11 -15 11 -8 0 -15 6 -15 14 0 10 -7 12 -22 9 -23 -5
-23 -5 -3 10 11 8 17 19 12 23 -4 4 -7 2 -7 -6 0 -10 -4 -10 -17 1 -11 10 -14
10 -9 2 4 -7 2 -13 -3 -13 -6 0 -11 9 -11 20 0 11 -7 20 -16 20 -9 0 -12 5 -8
13 6 10 4 10 -7 0 -18 -18 -29 -16 -30 5 0 14 -2 14 -9 -3 -6 -14 -9 -16 -10
-5 -2 8 -2 20 0 25 1 6 -4 5 -11 -2 -6 -6 -18 -9 -27 -6 -11 5 -13 2 -7 -8 7
-12 5 -12 -6 -1 -12 11 -12 14 1 22 8 5 10 10 4 10 -5 0 -16 -6 -23 -12 -9 -8
-11 -8 -8 -2 4 7 0 15 -9 18 -8 3 -13 2 -11 -2 3 -4 -2 -14 -11 -22 -14 -13
-15 -13 -10 1 3 9 2 22 -3 30 -6 10 -9 11 -9 1 0 -10 -5 -10 -22 -1 -20 11
-21 10 -11 -2 10 -12 8 -15 -7 -15 -10 0 -16 4 -14 8 3 4 -2 8 -11 8 -9 0 -13
5 -10 10 10 16 -1 12 -15 -6z m-200 -49 c0 -8 -2 -15 -4 -15 -2 0 -6 7 -10 15
-3 8 -1 15 4 15 6 0 10 -7 10 -15z m150 -1 c0 -8 -19 -13 -24 -6 -3 5 1 9 9 9
8 0 15 -2 15 -3z m315 -24 c-3 -5 -12 -10 -18 -10 -7 0 -6 4 3 10 19 12 23 12
15 0z m18 -15 c-3 -9 -8 -14 -10 -11 -3 3 -2 9 2 15 9 16 15 13 8 -4z m-470
-254 c-4 -3 -11 -10 -15 -15 -4 -4 -6 1 -5 12 1 12 6 18 15 15 7 -3 10 -9 5
-12z m745 -96 c-3 -3 -9 2 -12 12 -6 14 -5 15 5 6 7 -7 10 -15 7 -18z m-581
-167 c2 -18 0 -20 -7 -8 -12 18 -13 30 -2 30 4 0 9 -10 9 -22z m567 -26 c3 -5
-1 -9 -9 -9 -8 0 -12 4 -9 9 3 4 7 8 9 8 2 0 6 -4 9 -8z m-269 -52 c3 -5 1
-10 -4 -10 -6 0 -11 5 -11 10 0 6 2 10 4 10 3 0 8 -4 11 -10z"/>
<path d="M200 1692 c0 -6 -8 -9 -17 -6 -14 5 -15 4 -4 -4 11 -8 11 -10 0 -15
-8 -3 -9 -6 -3 -6 15 -1 39 28 30 36 -3 3 -6 1 -6 -5z"/>
<path d="M166 1641 c-4 -5 -2 -12 3 -15 5 -4 12 -2 15 3 4 5 2 12 -3 15 -5 4
-12 2 -15 -3z"/>
<path d="M866 1582 c-3 -5 1 -9 9 -9 8 0 12 4 9 9 -3 4 -7 8 -9 8 -2 0 -6 -4
-9 -8z"/>
<path d="M1454 1292 c4 -3 14 -7 22 -8 9 -1 13 0 10 4 -4 3 -14 7 -22 8 -9 1
-13 0 -10 -4z"/>
<path d="M1430 1282 c0 -7 4 -12 8 -12 4 0 9 -12 10 -27 1 -22 0 -24 -8 -13
-9 13 -10 13 -11 0 -1 -8 -1 -19 0 -25 1 -5 -6 -2 -15 7 -15 14 -16 20 -5 30
10 11 11 9 6 -7 -6 -18 -5 -18 5 -2 8 12 8 22 1 35 -10 16 -10 16 -11 -1 0
-10 -4 -16 -9 -13 -5 4 -7 -6 -5 -21 3 -16 6 -37 7 -48 1 -11 6 -25 10 -32 4
-6 3 -15 -3 -18 -8 -5 -5 -16 6 -33 13 -21 14 -24 2 -15 -8 7 -18 10 -22 6 -4
-4 -4 1 0 11 6 15 4 17 -6 11 -8 -5 -11 -4 -6 3 4 6 -4 16 -16 22 -19 9 -21 9
-8 -2 8 -7 16 -20 18 -28 5 -19 44 -56 56 -52 5 2 3 -4 -4 -14 -12 -14 -12
-18 3 -29 17 -12 25 -31 9 -21 -5 3 -9 -1 -9 -9 0 -8 4 -16 9 -16 33 -5 55 -4
65 4 7 5 20 4 32 -2 14 -8 22 -8 27 1 4 6 3 8 -4 4 -6 -3 -18 1 -27 11 -14 14
-18 14 -26 2 -5 -8 -9 -9 -9 -3 0 6 9 21 20 34 11 13 20 26 20 30 0 5 8 11 17
14 15 6 15 4 -2 -14 -10 -11 -16 -22 -14 -24 2 -3 14 6 26 20 12 13 17 24 11
24 -6 0 -8 3 -5 7 4 3 2 12 -5 20 -9 11 -7 12 8 7 17 -6 16 -4 -3 14 -13 13
-20 31 -19 47 3 19 0 23 -9 15 -9 -8 -15 -8 -20 0 -3 6 -10 8 -14 6 -4 -3 -8
1 -8 8 0 7 6 13 13 13 7 0 11 -4 8 -8 -2 -4 0 -10 5 -13 5 -3 12 1 15 10 8 20
8 24 -1 23 -29 -5 -35 1 -22 19 11 13 9 13 -9 -2 -21 -18 -24 -18 -38 -4 -11
11 -13 18 -5 23 6 3 10 1 9 -6 -2 -6 3 -14 10 -16 8 -3 10 1 5 13 -5 13 -3 15
7 9 8 -5 11 -4 7 3 -4 5 -15 9 -25 7 -9 -1 -25 4 -34 13 -12 9 -18 11 -18 4z
m60 -88 c0 -8 -19 -13 -24 -6 -3 5 1 9 9 9 8 0 15 -2 15 -3z m58 -85 c-3 -8
-7 -3 -11 10 -4 17 -3 21 5 13 5 -5 8 -16 6 -23z m19 -25 c-3 -3 -12 -4 -19
-1 -8 3 -5 6 6 6 11 1 17 -2 13 -5z m-63 -33 c3 -5 -2 -15 -12 -22 -15 -12
-16 -12 -5 2 7 9 10 19 6 22 -3 4 -4 7 0 7 3 0 8 -4 11 -9z m-30 -36 c11 -8
14 -15 8 -15 -7 0 -12 -5 -12 -11 0 -5 4 -8 9 -4 5 3 12 2 15 -3 2 -4 -6 -8
-20 -8 -27 0 -30 6 -12 24 9 9 6 14 -13 21 -13 5 -17 10 -9 10 8 0 24 -6 34
-14z"/>
<path d="M1373 1215 c4 -4 0 -17 -10 -27 -9 -11 -11 -18 -5 -18 7 0 12 5 12
11 0 5 5 7 10 4 8 -5 7 -12 -2 -23 -10 -12 -10 -14 0 -8 7 4 12 1 12 -9 0 -9
5 -13 10 -10 7 4 7 11 2 18 -5 7 -8 20 -7 29 2 9 -4 23 -13 30 -10 7 -14 8 -9
3z"/>
<path d="M345 1199 c-4 -6 -5 -12 -2 -15 2 -3 7 2 10 11 7 17 1 20 -8 4z"/>
<path d="M1570 1190 c0 -5 5 -10 11 -10 5 0 7 5 4 10 -3 6 -8 10 -11 10 -2 0
-4 -4 -4 -10z"/>
<path d="M1564 1152 c3 -18 18 -20 24 -4 1 5 -4 12 -12 15 -9 4 -13 0 -12 -11z"/>
<path d="M1112 1109 c-10 -16 -10 -19 -1 -13 9 5 10 2 6 -9 -9 -25 -2 -21 18
9 9 15 12 24 7 20 -6 -3 -12 -2 -14 4 -2 6 -9 1 -16 -11z"/>
<path d="M1143 1085 c-3 -9 -3 -19 1 -22 3 -4 6 1 6 11 0 9 5 14 10 11 6 -3
10 -1 10 4 0 17 -20 13 -27 -4z"/>
<path d="M1595 1090 c-3 -5 -1 -10 4 -10 6 0 11 5 11 10 0 6 -2 10 -4 10 -3 0
-8 -4 -11 -10z"/>
<path d="M1364 1069 c-4 -8 -3 -9 5 -5 7 5 17 -6 26 -28 18 -43 21 -44 20 -11
-2 30 -39 62 -51 44z"/>
<path d="M1530 1008 c0 -4 5 -10 10 -13 6 -3 10 -1 10 5 0 6 5 8 10 5 6 -3 10
-2 10 4 0 5 -9 9 -20 8 -11 -1 -20 -5 -20 -9z"/>
<path d="M1513 945 c0 -8 4 -12 9 -9 4 3 8 9 8 15 0 5 -4 9 -8 9 -5 0 -9 -7
-9 -15z"/>
<path d="M466 865 c-16 -12 -22 -12 -28 -2 -5 8 -8 8 -8 0 0 -6 -11 -10 -25
-8 -14 1 -28 -2 -32 -8 -3 -6 -1 -7 5 -3 7 4 12 3 12 -3 0 -5 -9 -13 -20 -16
-11 -3 -20 -11 -20 -16 0 -6 -3 -8 -8 -5 -11 7 -9 -58 3 -66 5 -4 0 -6 -12 -5
-16 1 -19 5 -12 13 6 8 5 13 -5 17 -11 4 -13 1 -9 -11 6 -15 5 -15 -10 -3 -9
7 -17 9 -17 4 0 -5 11 -16 25 -23 14 -7 25 -17 25 -22 0 -5 -4 -7 -8 -4 -4 2
-8 -6 -8 -20 0 -16 3 -21 10 -14 16 16 30 12 16 -5 -11 -13 -10 -14 4 -9 21 8
20 20 -1 33 -11 6 -13 11 -5 11 7 0 10 4 7 10 -4 6 1 7 11 3 11 -4 13 -8 6
-11 -7 -2 -9 -8 -6 -13 4 -6 10 -6 17 0 8 6 17 4 26 -6 12 -13 11 -14 -8 -8
-12 3 -21 2 -21 -4 0 -5 25 -10 55 -10 31 0 53 4 50 10 -3 5 2 6 11 2 16 -6
16 -7 0 -18 -9 -7 -16 -16 -16 -20 0 -4 6 -3 13 2 6 6 23 9 36 8 21 -2 22 0 7
10 -29 22 -10 31 23 11 10 -6 12 -5 7 2 -4 7 -2 12 4 12 6 0 8 5 5 10 -3 6 -2
10 4 10 5 0 12 9 16 19 4 14 12 18 23 14 9 -3 -1 9 -23 27 -22 18 -32 30 -21
26 15 -5 17 -3 11 11 -4 10 -8 26 -9 35 -1 10 -5 20 -9 24 -3 3 -4 -9 -2 -27
3 -19 1 -29 -3 -24 -6 9 -18 14 -47 19 -5 1 -16 5 -23 10 -8 5 -20 2 -30 -6
-9 -8 -24 -18 -32 -23 -8 -4 1 6 20 23 24 20 37 26 42 18 4 -6 8 -7 8 -2 0 5
7 3 15 -4 8 -7 15 -9 15 -4 0 5 5 2 10 -6 16 -25 11 3 -6 30 -14 24 -15 24 -9
2 6 -21 5 -22 -13 -11 -12 7 -18 17 -16 21 7 11 2 9 -20 -7z m-30 -22 c-2 -3
-7 -4 -10 -4 -11 2 -34 -24 -29 -32 2 -4 1 -7 -4 -6 -18 3 -34 -2 -29 -9 2 -4
0 -14 -5 -22 -7 -11 -8 -9 -6 8 4 25 51 69 74 69 7 0 11 -2 9 -4z m49 -41 c-3
-3 -11 0 -18 7 -9 10 -8 11 6 5 10 -3 15 -9 12 -12z m46 -9 c13 -16 12 -17 -3
-4 -10 7 -18 15 -18 17 0 8 8 3 21 -13z m59 -46 c0 -2 -10 -16 -22 -33 -22
-27 -78 -45 -78 -24 0 5 9 7 20 5 20 -4 24 5 20 35 -1 11 2 10 13 -4 10 -13
16 -15 21 -8 4 7 1 12 -6 13 -7 0 -4 4 7 9 25 11 25 11 25 7z m-200 -11 c0 -3
-4 -8 -10 -11 -5 -3 -10 -1 -10 4 0 6 5 11 10 11 6 0 10 -2 10 -4z m56 -54
c-10 -2 -22 0 -28 6 -6 6 0 7 19 4 21 -5 23 -7 9 -10z"/>
<path d="M581 824 c0 -11 3 -14 6 -6 3 7 2 16 -1 19 -3 4 -6 -2 -5 -13z"/>
<path d="M594 791 c4 -5 0 -12 -6 -14 -8 -3 -6 -6 5 -6 9 -1 17 6 17 14 0 8
-5 15 -11 15 -5 0 -8 -4 -5 -9z"/>
<path d="M997 734 c7 -3 9 -12 6 -19 -4 -12 -7 -12 -20 1 -12 12 -18 12 -31 2
-8 -7 -18 -12 -21 -10 -3 1 -7 -2 -7 -8 -1 -5 -2 -13 -3 -17 0 -4 -7 2 -15 13
-14 19 -14 19 -13 -1 1 -13 -4 -20 -14 -19 -9 1 -16 -6 -15 -15 1 -11 -7 -16
-22 -15 -19 1 -20 -1 -10 -14 10 -12 10 -14 1 -8 -7 4 -13 2 -13 -3 0 -6 -4
-11 -10 -11 -5 0 -7 8 -4 18 5 14 4 15 -5 2 -6 -8 -11 -21 -11 -28 0 -8 -9
-25 -20 -39 -11 -14 -17 -29 -15 -34 3 -4 -3 -6 -13 -4 -15 3 -18 -2 -16 -21
1 -17 -3 -24 -14 -24 -10 0 -24 -5 -32 -11 -12 -8 -10 -9 7 -4 12 3 24 1 28
-5 4 -6 3 -9 -2 -8 -4 2 -19 -5 -33 -15 -13 -9 -20 -17 -14 -17 5 0 16 6 23
13 20 20 1 -24 -22 -50 -18 -20 -18 -21 -1 -18 11 1 18 8 16 15 -1 6 2 9 8 5
6 -4 7 -12 1 -24 -6 -11 -6 -22 1 -32 8 -12 9 -12 5 1 -3 11 2 16 17 17 11 0
15 -1 9 -4 -23 -8 -14 -20 15 -21 47 0 53 -2 47 -12 -3 -5 -1 -10 5 -10 6 0 8
-5 4 -12 -4 -7 -3 -8 5 -4 6 4 9 11 7 15 -3 4 1 8 8 8 8 0 12 -5 10 -11 -3 -7
7 -13 21 -14 15 -1 24 2 20 8 -3 6 1 7 10 3 13 -5 14 -7 3 -14 -21 -14 10 -29
38 -19 19 8 22 6 19 -10 -2 -13 1 -17 10 -14 8 3 11 13 9 22 -5 15 -4 15 8 2
7 -8 22 -22 33 -30 19 -14 19 -14 3 6 -16 19 -16 20 2 20 10 0 16 -4 14 -8 -3
-4 2 -8 11 -8 9 0 13 5 10 10 -3 6 -2 10 4 10 5 0 11 -5 13 -12 3 -7 12 -6 30
6 18 12 28 14 33 6 5 -8 11 -8 19 -1 7 6 15 9 18 6 2 -3 5 2 5 10 0 13 -4 12
-21 -2 -16 -14 -15 -11 3 9 20 23 27 25 44 17 12 -7 17 -7 13 -1 -3 5 1 13 10
16 10 4 14 14 12 24 -3 12 0 19 9 19 9 0 11 -7 8 -21 -5 -19 -5 -19 5 -3 7 10
9 25 6 34 -5 13 -4 14 8 4 12 -10 14 -9 9 8 -3 14 0 23 11 27 9 3 16 10 16 16
0 5 -5 6 -12 2 -7 -4 -8 -3 -4 5 4 6 12 8 18 5 8 -5 9 -1 4 11 -5 15 -4 16 8
6 11 -9 16 -9 22 0 4 7 3 9 -4 5 -7 -4 -10 1 -9 14 1 11 7 20 13 20 6 0 11 8
10 18 0 9 4 16 11 15 8 -2 10 4 6 14 -4 11 -3 14 5 9 19 -11 14 5 -5 20 -17
13 -17 14 2 7 11 -3 17 -3 13 2 -4 4 0 14 10 22 9 8 11 11 3 7 -11 -5 -13 -3
-8 10 4 9 3 14 -2 11 -5 -3 -12 -1 -15 4 -4 5 -1 13 5 17 8 5 9 3 4 -6 -6 -9
-4 -11 5 -5 7 4 15 2 20 -5 5 -8 9 -7 14 6 4 10 4 15 0 11 -4 -4 -13 -2 -21 5
-7 6 -16 8 -20 5 -3 -4 -12 -2 -20 5 -10 8 -13 8 -10 -3 2 -8 2 -11 0 -6 -3 4
-9 5 -14 2 -5 -4 -6 2 -2 11 5 14 2 16 -14 12 -16 -4 -19 -1 -17 18 1 13 -2
22 -7 18 -5 -3 -7 -9 -5 -13 3 -4 0 -13 -6 -21 -8 -12 -9 -11 -4 4 5 13 2 17
-9 12 -8 -3 -23 -9 -32 -12 -15 -5 -16 -4 -3 5 11 8 12 11 2 11 -7 0 -11 4 -8
9 3 4 -23 8 -58 7 -54 -2 -63 1 -58 14 5 13 3 13 -11 1 -9 -7 -14 -18 -10 -24
3 -6 1 -7 -5 -3 -6 4 -9 12 -6 20 3 7 -2 13 -10 13 -8 0 -12 -6 -9 -14 7 -18
-12 -17 -27 2 -7 8 -18 15 -24 14 -7 0 -7 -2 1 -5z m-36 -27 c-6 -8 -7 -18 -3
-23 4 -4 -1 -2 -10 5 -19 14 -25 26 -9 16 5 -3 12 -1 16 5 3 5 9 10 12 10 3 0
0 -6 -6 -13z m249 -377 c0 -5 -5 -10 -11 -10 -5 0 -7 5 -4 10 3 6 8 10 11 10
2 0 4 -4 4 -10z"/>
<path d="M1130 729 c0 -5 5 -7 10 -4 6 3 10 8 10 11 0 2 -4 4 -10 4 -5 0 -10
-5 -10 -11z"/>
<path d="M270 716 c0 -2 7 -6 15 -10 8 -3 15 -1 15 4 0 6 -7 10 -15 10 -8 0
-15 -2 -15 -4z"/>
<path d="M1230 708 c0 -4 4 -8 9 -8 6 0 12 4 15 8 3 5 -1 9 -9 9 -8 0 -15 -4
-15 -9z"/>
<path d="M840 671 c0 -6 4 -13 10 -16 6 -3 7 1 4 9 -7 18 -14 21 -14 7z"/>
<path d="M1416 672 c-3 -5 1 -9 9 -9 8 0 12 4 9 9 -3 4 -7 8 -9 8 -2 0 -6 -4
-9 -8z"/>
<path d="M414 648 c-4 -7 -4 -10 1 -6 4 4 14 0 22 -10 13 -15 13 -15 3 6 -12
25 -16 27 -26 10z"/>
<path d="M764 592 c3 -5 0 -12 -6 -15 -7 -2 -10 -7 -7 -11 3 -4 12 0 18 8 9
11 9 16 0 22 -7 4 -9 3 -5 -4z"/>
<path d="M730 550 c0 -5 5 -10 11 -10 5 0 7 5 4 10 -3 6 -8 10 -11 10 -2 0 -4
-4 -4 -10z"/>
<path d="M1095 250 c-3 -5 -1 -10 4 -10 6 0 11 5 11 10 0 6 -2 10 -4 10 -3 0
-8 -4 -11 -10z"/>
</g>
</svg>
